<svg width="24" height="24" viewBox="0 0 24 24" fill="none" xmlns="http://www.w3.org/2000/svg">
<rect width="24" height="24" fill="white" fill-opacity="0.01" style="mix-blend-mode:multiply"/>
<path d="M12.5925 14.5395L17.8425 21.2895C17.9287 21.4004 17.9821 21.5332 17.9965 21.6729C18.011 21.8126 17.9859 21.9536 17.9242 22.0797C17.8624 22.2059 17.7665 22.3121 17.6473 22.3865C17.5281 22.4608 17.3905 22.5001 17.25 22.5H6.75C6.60955 22.5001 6.47189 22.4608 6.35271 22.3865C6.23352 22.3121 6.13759 22.2059 6.07585 22.0797C6.0141 21.9536 5.98902 21.8126 6.00345 21.6729C6.01789 21.5332 6.07126 21.4004 6.1575 21.2895L11.4075 14.5395C11.4776 14.4493 11.5674 14.3763 11.67 14.3261C11.7727 14.2759 11.8854 14.2498 11.9997 14.2498C12.1139 14.2498 12.2267 14.2759 12.3293 14.3261C12.4319 14.3763 12.5224 14.4493 12.5925 14.5395Z" fill="#007D6A"/>
<path d="M1.5 11.25V12.75H22.5V11.25H1.5Z" fill="#007D6A"/>
<path d="M12 9.75C11.8857 9.75002 11.7729 9.72396 11.6703 9.67379C11.5676 9.62362 11.4777 9.55067 11.4075 9.4605L6.1575 2.7105C6.07126 2.59964 6.01789 2.4668 6.00345 2.32709C5.98902 2.18738 6.0141 2.04643 6.07585 1.92028C6.13759 1.79413 6.23352 1.68785 6.35271 1.61355C6.47189 1.53925 6.60955 1.4999 6.75 1.5H17.25C17.3905 1.4999 17.5281 1.53925 17.6473 1.61355C17.7665 1.68785 17.8624 1.79413 17.9242 1.92028C17.9859 2.04643 18.011 2.18738 17.9965 2.32709C17.9821 2.4668 17.9287 2.59964 17.8425 2.7105L12.5925 9.4605C12.5223 9.55067 12.4324 9.62362 12.3297 9.67379C12.2271 9.72396 12.1143 9.75002 12 9.75ZM8.2833 3L12 7.77833L15.7167 3H8.2833Z" fill="#007D6A"/>
</svg>
