<svg width="24" height="24" viewBox="0 0 24 24" fill="none" xmlns="http://www.w3.org/2000/svg">
<rect width="24" height="24" fill="white" fill-opacity="0.01" style="mix-blend-mode:multiply"/>
<path d="M9.4605 12.5925L2.7105 17.8425C2.59964 17.9287 2.46679 17.9821 2.32709 17.9965C2.18738 18.011 2.04643 17.9859 1.92028 17.9242C1.79413 17.8624 1.68785 17.7665 1.61355 17.6473C1.53924 17.5281 1.4999 17.3904 1.5 17.25L1.5 6.75C1.4999 6.60955 1.53925 6.47189 1.61355 6.35271C1.68785 6.23352 1.79413 6.13759 1.92028 6.07584C2.04643 6.0141 2.18738 5.98901 2.32709 6.00345C2.4668 6.01789 2.59964 6.07126 2.7105 6.1575L9.4605 11.4075C9.55071 11.4776 9.6237 11.5674 9.67392 11.67C9.72413 11.7727 9.75024 11.8854 9.75024 11.9997C9.75024 12.1139 9.72413 12.2267 9.67392 12.3293C9.6237 12.4319 9.55071 12.5224 9.4605 12.5925Z" fill="#E7BFB5"/>
<path d="M12.75 1.5L11.25 1.5L11.25 22.5L12.75 22.5L12.75 1.5Z" fill="#E7BFB5"/>
<path d="M14.25 12C14.25 11.8857 14.276 11.7729 14.3262 11.6703C14.3764 11.5676 14.4493 11.4777 14.5395 11.4075L21.2895 6.1575C21.4004 6.07126 21.5332 6.01789 21.6729 6.00345C21.8126 5.98902 21.9536 6.0141 22.0797 6.07584C22.2059 6.13759 22.3121 6.23352 22.3865 6.35271C22.4608 6.47189 22.5001 6.60955 22.5 6.75L22.5 17.25C22.5001 17.3905 22.4608 17.5281 22.3865 17.6473C22.3121 17.7665 22.2059 17.8624 22.0797 17.9242C21.9536 17.9859 21.8126 18.011 21.6729 17.9965C21.5332 17.9821 21.4004 17.9287 21.2895 17.8425L14.5395 12.5925C14.4493 12.5223 14.3764 12.4324 14.3262 12.3297C14.276 12.2271 14.25 12.1143 14.25 12ZM21 8.2833L16.2217 12L21 15.7167L21 8.2833Z" fill="#E7BFB5"/>
</svg>
